<svg width="455" height="549" version="1.1" xmlns="http://www.w3.org/2000/svg" desc="Created with imagetracer.js version 1.2.6" ><path fill="rgb(0,0,0)" stroke="rgb(0,0,0)" stroke-width="1" opacity="0" d="M 0 0 L 455 0 L 455 549 L 0 549 L 0 0 Z M 228 112 L 228 114 L 227 113 L 224 114 L 221 116 L 219 116 Q 216 115 217 118 L 216 117 L 214 118 L 214 120 L 213 120 L 211 120 L 210 122 Q 208 126 207 123 L 203 127 L 204 128 L 200 136 L 198 136 L 199 138 Q 200 142 198 141 L 198 145 L 197 148 L 198 149 L 198 155 Q 193 154 191 158 L 191 172 L 194 180 L 201 181 L 202 183 L 203 190 L 206 194 Q 205 199 207 201 Q 208 205 206 207 L 207 209 L 205 210 L 205 212 L 201 218 Q 198 217 199 220 L 198 219 L 197 221 L 189 225 L 186 226 Q 187 228 185 227 L 183 227 L 182 229 L 171 234 L 169 234 L 168 236 L 164 238 L 162 238 L 161 240 Q 160 242 159 240 L 157 241 L 157 243 Q 156 245 155 243 L 150 248 L 151 249 L 148 250 L 149 252 L 148 252 L 148 254 L 145 262 L 143 262 L 144 265 L 143 267 Q 145 272 141 271 L 142 275 L 140 275 L 141 277 L 140 285 L 138 285 L 139 287 L 138 293 L 138 295 L 137 300 Q 138 306 136 306 L 136 308 L 135 323 L 134 322 L 133 322 L 134 325 L 133 340 L 130 353 L 130 358 Q 126 359 129 361 Q 130 365 128 364 L 128 366 Q 129 370 127 372 Q 129 378 125 377 L 126 380 L 125 389 L 123 389 L 124 391 L 124 433 L 126 442 L 132 456 L 133 464 L 139 468 L 153 474 L 157 474 L 158 473 L 160 456 L 161 474 L 170 480 L 191 483 L 213 488 L 244 488 L 245 487 L 254 487 L 280 481 L 325 465 L 354 446 Q 359 443 361 437 Q 359 432 363 433 L 362 432 L 362 426 L 365 415 L 365 389 L 364 384 L 355 367 L 356 365 L 355 364 L 350 356 L 348 333 L 344 321 L 345 318 L 343 317 L 341 309 L 342 306 L 340 305 L 334 283 L 335 280 L 333 279 L 331 273 L 332 269 L 331 269 L 325 255 L 326 253 L 324 252 L 322 247 L 323 245 L 321 244 L 315 234 L 313 234 L 300 226 Q 297 227 298 225 L 297 225 L 290 223 L 290 221 L 288 222 L 280 220 L 280 218 L 278 219 L 274 218 Q 270 219 271 216 L 268 217 L 268 215 L 266 216 Q 263 217 264 214 L 262 214 L 260 212 L 260 210 L 259 209 Q 256 208 258 207 L 257 206 Q 258 204 255 203 L 256 188 L 263 185 L 269 175 L 269 164 L 267 161 Q 264 162 265 158 L 264 153 L 265 150 L 265 152 L 266 152 L 265 148 L 266 138 L 265 138 L 264 135 L 265 133 Q 262 134 263 130 L 262 130 L 262 129 L 262 127 L 260 128 L 259 125 L 257 126 L 257 124 L 255 125 L 255 124 L 254 123 L 254 122 Q 253 119 252 121 L 251 118 L 249 119 L 247 118 L 247 116 L 245 117 L 245 115 L 242 116 L 242 115 L 240 113 L 238 114 L 238 112 L 236 113 Q 230 114 228 112 Z M 267 141 L 266 147 L 267 147 L 267 141 Z M 367 402 L 366 409 L 367 409 L 367 402 Z " /><path fill="rgb(0,0,0)" stroke="rgb(0,0,0)" stroke-width="1" opacity="0" d="M 323.5 410 Q 326.8 408.9 326 411.5 Q 328.7 414.8 328 421.5 L 326 420.5 L 323.5 410 Z " /><path fill="rgb(150,155,179)" stroke="rgb(150,155,179)" stroke-width="1" opacity="0.9686274509803922" d="M 236.5 112 L 247 116.5 L 245.5 117 L 236.5 113 L 236.5 112 Z " /><path fill="rgb(150,155,179)" stroke="rgb(150,155,179)" stroke-width="1" opacity="0.9686274509803922" d="M 224.5 113 L 227 113.5 L 222.5 115 L 222.5 114 L 224.5 113 Z " /><path fill="rgb(150,155,179)" stroke="rgb(150,155,179)" stroke-width="1" opacity="0.9686274509803922" d="M 219.5 115 L 218.5 117 L 217 116.5 L 219.5 115 Z " /><path fill="rgb(150,155,179)" stroke="rgb(150,155,179)" stroke-width="1" opacity="0.9686274509803922" d="M 215.5 117 L 214.5 119 L 213 118.5 L 215.5 117 Z " /><path fill="rgb(150,155,179)" stroke="rgb(150,155,179)" stroke-width="1" opacity="0.9686274509803922" d="M 248.5 117 L 254 121.5 L 252 122 L 250.5 119 L 248.5 117 Z " /><path fill="rgb(150,155,179)" stroke="rgb(150,155,179)" stroke-width="1" opacity="0.9686274509803922" d="M 206.5 123 L 203.5 127 L 206.5 123 Z " /><path fill="rgb(150,155,179)" stroke="rgb(150,155,179)" stroke-width="1" opacity="0.9686274509803922" d="M 254.5 123 L 260 126.5 L 258.5 127 L 254.5 123 Z " /><path fill="rgb(150,155,179)" stroke="rgb(150,155,179)" stroke-width="1" opacity="0.9686274509803922" d="M 261.5 127 L 263 130.5 L 262 130.5 L 261.5 127 Z " /><path fill="rgb(150,155,179)" stroke="rgb(150,155,179)" stroke-width="1" opacity="0.9686274509803922" d="M 233.5 134 L 253.5 136 L 257 138.5 L 261 148.5 L 261 161 L 264 159.5 L 264.5 157 L 265 161 L 269 163.5 L 269 174.5 L 262.5 185 L 256 187.5 L 255 202.5 L 256.5 205 L 254 204 L 255 207.5 L 245 227.5 L 248 229 L 248.5 227 L 249 228.5 L 246 232.5 L 244 251.5 L 245 252.5 L 245 268.5 L 246 271.5 L 245 272.5 L 245 287.5 L 246 288.5 L 246 302.5 L 249 318.5 L 249 328.5 L 252 341.5 L 252 351.5 L 253 352.5 L 254 372.5 L 255 373.5 L 255 391.5 L 257 400.5 L 257 415.5 L 258 416.5 L 259 436.5 L 260 437.5 L 261 479.5 L 259.5 481 L 247.5 481 L 246.5 482 L 224.5 482 L 223.5 481 Q 213.2 482.2 208 480 L 210 437.5 L 209 436.5 L 208 351.5 L 207 350.5 L 206 331.5 L 203 317.5 L 203 302.5 L 202 301.5 L 201 237.5 L 203.5 231 L 206 232 L 205 223.5 L 206 223.5 L 208.5 228 L 209 223.5 L 208 222.5 L 208 208 Q 205.3 209.1 206 206.5 Q 208.3 205.2 207 200.5 Q 204.5 199 206 193.5 L 203 189.5 L 202 182.5 L 200.5 181 L 194 180 L 191 171.5 L 191 157.5 Q 193 154.2 198 155 Q 196.9 157.7 199.5 157 L 203.5 158 L 202.5 156 L 199 154.5 L 200 149.5 L 206.5 139 L 211.5 137 L 211.5 139 L 220.5 138 L 222.5 136 L 224.5 137 L 233.5 134 Z M 244 150 Q 240 151 241 155 L 236 158 Q 237 160 234 159 L 234 160 Q 238 161 237 159 L 245 154 L 252 154 L 251 151 L 244 150 Z M 225 155 L 226 157 L 227 157 L 225 155 Z M 218 157 L 219 158 L 220 161 Q 222 162 221 159 Q 224 158 223 161 L 226 161 L 225 160 L 225 157 L 218 157 Z M 245 159 L 245 163 L 249 163 L 249 162 L 251 162 L 252 162 Q 250 158 245 159 Z M 257 161 L 257 162 L 259 162 L 257 161 Z M 260 162 Q 259 165 263 164 Q 264 161 260 162 Z M 235 164 L 236 170 L 239 171 Q 240 168 237 169 L 239 166 L 235 164 Z M 266 164 L 266 173 L 268 172 L 268 165 L 266 164 Z M 262 170 Q 259 171 261 173 L 260 177 L 263 177 L 265 172 L 262 170 Z M 240 171 L 240 176 Q 243 177 242 173 L 240 171 Z M 233 174 L 233 177 L 237 177 L 237 176 L 233 174 Z M 232 182 L 230 184 L 240 187 L 243 186 L 239 183 L 232 182 Z M 238 202 L 232 205 L 234 206 L 232 207 L 232 208 L 238 207 L 241 203 L 238 202 Z " /><path fill="rgb(150,155,179)" stroke="rgb(150,155,179)" stroke-width="1" opacity="0.9686274509803922" d="M 265.5 137 L 266 139.5 L 265 139.5 L 265.5 137 Z " /><path fill="rgb(150,155,179)" stroke="rgb(150,155,179)" stroke-width="1" opacity="0.9686274509803922" d="M 266.5 141 L 267 146.5 L 266 146.5 L 266.5 141 Z " /><path fill="rgb(150,155,179)" stroke="rgb(150,155,179)" stroke-width="1" opacity="0.9686274509803922" d="M 265.5 148 L 266 151.5 L 265 151.5 L 265.5 148 Z " /><path fill="rgb(150,155,179)" stroke="rgb(150,155,179)" stroke-width="1" opacity="0.9686274509803922" d="M 257.5 206 L 258.5 208 L 257.5 206 Z " /><path fill="rgb(150,155,179)" stroke="rgb(150,155,179)" stroke-width="1" opacity="0.9686274509803922" d="M 259.5 209 L 260.5 211 L 259.5 209 Z " /><path fill="rgb(150,155,179)" stroke="rgb(150,155,179)" stroke-width="1" opacity="0.9686274509803922" d="M 204.5 210 L 203.5 212 L 204.5 210 Z " /><path fill="rgb(150,155,179)" stroke="rgb(150,155,179)" stroke-width="1" opacity="0.9686274509803922" d="M 306.5 228 L 307.5 230 L 306.5 228 Z " /><path fill="rgb(150,155,179)" stroke="rgb(150,155,179)" stroke-width="1" opacity="0.9686274509803922" d="M 316.5 235 L 318.5 238 L 316.5 235 Z " /><path fill="rgb(150,155,179)" stroke="rgb(150,155,179)" stroke-width="1" opacity="0.9686274509803922" d="M 159.5 239 L 157.5 242 L 156 241.5 L 159.5 239 Z " /><path fill="rgb(150,155,179)" stroke="rgb(150,155,179)" stroke-width="1" opacity="0.9686274509803922" d="M 154.5 243 L 149 249.5 L 148.5 251 L 148 249.5 L 154.5 243 Z " /><path fill="rgb(150,155,179)" stroke="rgb(150,155,179)" stroke-width="1" opacity="0.9686274509803922" d="M 152.5 248 L 153 251 L 151 250.5 L 152.5 248 Z " /><path fill="rgb(150,155,179)" stroke="rgb(150,155,179)" stroke-width="1" opacity="0.9686274509803922" d="M 147.5 252 L 146.5 254 L 147.5 252 Z " /><path fill="rgb(150,155,179)" stroke="rgb(150,155,179)" stroke-width="1" opacity="0.9686274509803922" d="M 143.5 261 L 144 263.5 L 143 263.5 L 143.5 261 Z " /><path fill="rgb(150,155,179)" stroke="rgb(150,155,179)" stroke-width="1" opacity="0.9686274509803922" d="M 193.5 267 L 194 268.5 L 192.5 271 L 192 269.5 L 193.5 267 Z " /><path fill="rgb(150,155,179)" stroke="rgb(150,155,179)" stroke-width="1" opacity="0.9686274509803922" d="M 133.5 321 L 134 323.5 L 133 323.5 L 133.5 321 Z " /><path fill="rgb(150,155,179)" stroke="rgb(150,155,179)" stroke-width="1" opacity="0.9686274509803922" d="M 200.5 341 L 201 344.5 L 200 344.5 L 200.5 341 Z " /><path fill="rgb(150,155,179)" stroke="rgb(150,155,179)" stroke-width="1" opacity="0.9686274509803922" d="M 366.5 402 L 367 408.5 L 366 408.5 L 366.5 402 Z " /><path fill="rgb(150,155,179)" stroke="rgb(150,155,179)" stroke-width="1" opacity="0.9686274509803922" d="M 198 459 L 207 459 L 207 470 L 199.5 472 L 198 470.5 L 198 459 Z " /><path fill="rgb(150,155,179)" stroke="rgb(150,155,179)" stroke-width="1" opacity="0.9686274509803922" d="M 276 472 Q 278.7 470.9 278 473.5 L 276 474.5 L 276 472 Z " /><path fill="rgb(150,155,179)" stroke="rgb(150,155,179)" stroke-width="1" opacity="0.9686274509803922" d="M 221.5 483 Q 224.5 482.1 223 486.5 Q 221.8 489.3 216.5 488 L 212 485.5 L 221.5 483 Z " /><path fill="rgb(15,28,72)" stroke="rgb(15,28,72)" stroke-width="1" opacity="0.9921568627450981" d="M 228.5 113 Q 232.5 112.5 233 115.5 L 231.5 118 L 229.5 117 L 228 120.5 L 230 124.5 L 230 126.5 Q 230.8 128.8 228.5 128 L 228.5 130 L 226 130.5 L 228 131.5 L 227.5 133 L 238.5 133 L 246 134.5 L 237.5 135 L 233.5 134 L 223.5 137 Q 222 134.5 220.5 138 L 211.5 139 L 208.5 138 L 208.5 140 L 206.5 139 L 200 149.5 L 199 154.5 L 204 157.5 L 202.5 157 L 200.5 158 L 198 157 L 199 136.5 Q 201.3 128.8 206.5 124 Q 215.5 116.5 228.5 113 Z " /><path fill="rgb(15,28,72)" stroke="rgb(15,28,72)" stroke-width="1" opacity="0.9921568627450981" d="M 238.5 114 L 241 115.5 Q 238.8 116.8 241.5 118 Q 243.2 120.8 248.5 120 L 249.5 119 L 254 123.5 Q 253.3 125.8 255.5 125 L 259 127.5 Q 257.8 131.3 261.5 130 L 264 133.5 L 261.5 135 L 258 133 L 259 130.5 L 251 124.5 L 252 122.5 L 250 121.5 Q 250.8 123.8 248.5 123 L 242 122 Q 243 119 240 120 Q 241.3 123 237.5 122 L 236 122.5 L 237.5 120 L 239 119.5 L 238 116 L 240 115.5 L 238.5 114 Z " /><path fill="rgb(15,28,72)" stroke="rgb(15,28,72)" stroke-width="1" opacity="0.9921568627450981" d="M 235.5 115 L 236 117 L 234 116.5 L 235.5 115 Z " /><path fill="rgb(15,28,72)" stroke="rgb(15,28,72)" stroke-width="1" opacity="0.9921568627450981" d="M 253 131 Q 256 130 255 133 Q 252 134 253 131 Z " /><path fill="rgb(15,28,72)" stroke="rgb(15,28,72)" stroke-width="1" opacity="0.9921568627450981" d="M 247.5 135 L 251 135.5 L 247.5 136 L 247.5 135 Z " /><path fill="rgb(15,28,72)" stroke="rgb(15,28,72)" stroke-width="1" opacity="0.9921568627450981" d="M 254.5 136 L 257 137.5 L 255.5 137 L 254.5 136 Z " /><path fill="rgb(15,28,72)" stroke="rgb(15,28,72)" stroke-width="1" opacity="0.9921568627450981" d="M 261.5 142 L 263 142.5 L 263 149.5 L 262 149.5 Q 262.7 146.9 260 148 L 260 143.5 L 261.5 142 Z " /><path fill="rgb(15,28,72)" stroke="rgb(15,28,72)" stroke-width="1" opacity="0.9921568627450981" d="M 243.5 150 L 246 150.5 L 244 151 Q 242.9 154.5 250.5 153 L 250.5 154 L 244 154.5 L 246 155.5 L 244.5 156 L 242.5 156 L 237 158.5 L 236.5 160 L 236 157.5 L 241 155 Q 240.3 151.2 243.5 150 Z " /><path fill="rgb(15,28,72)" stroke="rgb(15,28,72)" stroke-width="1" opacity="0.9921568627450981" d="M 224.5 155 L 227 156.5 L 225 157 L 226 160.5 L 223 161 Q 224 158 221 159 Q 222.1 161.7 219.5 161 L 218.5 158 L 217 157.5 L 225 156.5 L 224.5 155 Z " /><path fill="rgb(15,28,72)" stroke="rgb(15,28,72)" stroke-width="1" opacity="0.9921568627450981" d="M 244.5 159 L 251 160 L 250.5 162 L 249 161.5 L 249 163 L 245 163 L 244.5 159 Z M 246 160 Q 245 163 248 162 Q 249 159 246 160 Z " /><path fill="rgb(15,28,72)" stroke="rgb(15,28,72)" stroke-width="1" opacity="0.9921568627450981" d="M 237.5 164 Q 240.5 165.5 237.5 167 L 237.5 164 Z " /><path fill="rgb(15,28,72)" stroke="rgb(15,28,72)" stroke-width="1" opacity="0.9921568627450981" d="M 239.5 171 L 242 172.5 L 240.5 172 L 239.5 171 Z " /><path fill="rgb(15,28,72)" stroke="rgb(15,28,72)" stroke-width="1" opacity="0.9921568627450981" d="M 240.5 174 L 241.5 176 L 240.5 174 Z " /><path fill="rgb(15,28,72)" stroke="rgb(15,28,72)" stroke-width="1" opacity="0.9921568627450981" d="M 231.5 182 Q 236.3 180.3 235 184.5 L 233.5 184 L 230 183.5 L 231.5 182 Z " /><path fill="rgb(15,28,72)" stroke="rgb(15,28,72)" stroke-width="1" opacity="0.9921568627450981" d="M 239.5 186 L 242 186.5 L 239.5 187 L 239.5 186 Z " /><path fill="rgb(15,28,72)" stroke="rgb(15,28,72)" stroke-width="1" opacity="0.9921568627450981" d="M 233.5 203 L 235 206.5 L 231.5 208 L 231.5 207 L 234 205.5 L 232 204.5 L 233.5 203 Z " /><path fill="rgb(15,28,72)" stroke="rgb(15,28,72)" stroke-width="1" opacity="0.9921568627450981" d="M 254 204 L 256 204.5 L 254 205.5 L 254 204 Z " /><path fill="rgb(15,28,72)" stroke="rgb(15,28,72)" stroke-width="1" opacity="0.9921568627450981" d="M 257.5 208 L 264 218.5 L 262 229.5 L 263.5 235 L 266 234 L 267 226 L 269 226 Q 267.9 228.7 270.5 228 L 270 226.5 L 266 218.5 L 270.5 217 L 270.5 219 L 274 218 Q 272.7 221.3 277.5 220 L 279 219.5 Q 278.3 221.8 280.5 221 L 282.5 220 L 305.5 229 Q 314.3 233.3 320 240.5 L 322 244.5 Q 319.5 246 323 247.5 L 324 250.5 L 322 250.5 L 323 252.5 L 323 290.5 L 320.5 296 L 320 291.5 L 321 288.5 L 319.5 289 L 317 288.5 L 320.5 287 L 322 287.5 Q 323.5 282 321 280.5 Q 323.3 279.3 322 274.5 L 321 274.5 L 320.5 276 L 319 271.5 L 320 269 L 316 268 Q 317.1 270.7 314.5 270 L 312 271 L 311.5 269 L 309.5 277 L 309 269.5 L 311.5 266 L 312 268 L 315 267.5 Q 309.5 265 314 262.5 L 317 257.5 L 317 255.5 L 316.5 252 L 313.5 255 L 312 253.5 Q 309 251.5 310 245.5 L 311 242 Q 308 240.8 309 244.5 L 307 249.5 Q 307.7 256.5 306 260 L 303.5 259 L 300 268.5 Q 301.5 276 299 279.5 L 299.5 281 L 297 280.5 L 296.5 279 L 295 279.5 L 297 277.5 L 298 269.5 L 297 268.5 L 297 252.5 L 295.5 250 L 293 259.5 L 291 278.5 L 291.5 281 Q 295.3 280 294 283 L 291.5 282 L 290 285.5 L 291.5 285 Q 294.8 283.9 294 286.5 L 293.5 289 Q 288.9 287.6 291 293.5 L 289.5 293 Q 286.5 292.1 288 296.5 L 285 299.5 L 285 309.5 L 281 321.5 Q 283.3 322.8 282 327.5 L 282 329.5 L 280 334.5 L 281 338.5 Q 278 339.8 279 344 L 281 344.5 L 278 346.5 L 277 342 Q 274.3 340.9 275 343.5 Q 277.3 344.8 274.5 346 Q 272.1 342.9 273 336.5 L 274 334.5 L 273 333.5 L 273 325.5 L 274 321.5 L 273 319.5 L 277 303.5 L 277 298.5 L 276 296 L 274 296 Q 275.1 298.7 272.5 298 L 270 299.5 L 270.5 301 Q 266.1 302.5 267 299.5 L 266 296 L 264 295.5 L 264 283.5 L 263 278.5 L 263 276.5 L 263 265.5 L 264 264.5 L 264 262.5 L 263.5 256 L 261 268.5 L 261 283.5 L 260 288.5 L 261 289.5 L 262 311.5 L 259 323.5 L 259 332.5 L 260 333.5 L 260 343.5 L 262 348.5 L 264 373.5 L 266 375.5 L 268 385.5 L 268 396.5 L 266 396.5 L 267 404.5 L 266 406.5 L 268 408.5 L 268 414.5 L 270 416.5 Q 269.2 422.8 272 425.5 Q 267.3 429.3 269 439.5 Q 271.5 441 270 446.5 L 271.5 448 Q 278.8 450.6 277 444.5 Q 274.2 443.4 275 440 Q 278 441.3 277 437.5 L 280.5 431 L 285 432 L 285.5 430 L 286 432 L 289 432.5 L 284 436.5 L 283 440 L 279 441 L 278 449 L 274 449.5 Q 275.2 452 279 451 Q 280.3 454.3 275.5 453 L 273.5 452 L 271.5 453 Q 270.3 450.8 269 453.5 L 270 465.5 L 269 467.5 L 270.5 467 L 276.5 465 L 285 457.5 Q 284.2 454.9 287.5 456 L 291 450 Q 293.7 448.9 293 451.5 L 294.5 451 L 296.5 451 L 304 445.5 L 305.5 442 L 307 441.5 L 306 438.5 Q 308.8 432.6 317 433 L 316 437 L 312 439.5 L 309 443.5 L 310.5 444 L 312 443.5 L 294 460.5 L 289.5 466 L 290 464.5 L 289.5 463 L 286 465 L 282 472.5 L 282 474.5 L 283 476.5 L 281 480 L 276.5 481 L 275 478 Q 272 479.3 273 475.5 L 271.5 473 L 267.5 482 L 266.5 480 L 266 482 L 262 483 L 264.5 477 L 266 477.5 L 265.5 479 L 267.5 480 L 270 472.5 L 268.5 468 L 267 472 L 262 473 L 261.5 477 L 259 428.5 L 260 428.5 L 260.5 437 L 262 430.5 Q 259.5 429 263 427.5 L 261.5 421 Q 258.9 422.4 259.5 427 L 257 415.5 L 257 400.5 L 255 391.5 L 255 373.5 L 254 372.5 L 254 362.5 L 252 351.5 L 252 341.5 L 249 328.5 L 249 318.5 L 246 302.5 L 245 272.5 L 246 269.5 L 245 268.5 Q 246.6 256.4 244 248.5 L 245 247.5 L 245.5 237 L 248 240.5 L 246 240.5 L 246 248.5 L 248.5 249 L 252.5 249 L 255 249 L 255 255.5 L 255 257.5 L 254 262.5 L 254 264.5 L 255 266.5 L 255.5 284 L 257 270.5 L 256 266.5 L 257 264.5 L 257 262.5 L 257 251.5 L 261 240.5 L 262 230.5 L 261 230.5 L 260 235.5 L 257 240.5 L 256.5 249 L 247.5 232 L 246.5 236 L 246 232.5 L 248 229.5 L 245 227.5 L 247 221.5 L 249.5 219 L 249 220.5 L 249.5 222 Q 251 218.5 252.5 221 L 255 219.5 L 255 215.5 L 257.5 208 Z M 249 227 L 248 229 L 250 230 L 249 227 Z M 290 232 L 289 235 L 290 235 L 290 232 Z M 285 240 L 282 250 L 282 254 L 282 256 L 280 259 L 282 266 Q 284 265 282 264 L 287 250 Q 283 248 287 246 Q 289 239 285 240 Z M 264 241 L 263 245 L 264 245 L 264 241 Z M 319 244 L 318 247 L 319 247 L 319 244 Z M 322 266 L 321 272 L 322 272 L 322 266 Z M 284 269 L 281 277 L 279 287 L 283 288 L 284 287 Q 282 276 286 272 Q 287 268 284 269 Z M 260 306 L 260 310 L 261 310 L 260 306 Z M 265 379 L 264 384 L 265 384 L 265 379 Z M 306 447 L 304 449 L 306 449 L 306 447 Z M 303 449 L 301 452 L 304 450 L 303 449 Z M 293 453 L 294 457 L 295 454 L 293 453 Z M 262 455 L 261 460 L 262 460 L 262 455 Z M 296 455 L 296 457 L 298 456 L 296 455 Z M 291 457 Q 291 461 293 458 L 291 457 Z M 276 472 L 276 475 L 278 474 Q 279 471 276 472 Z " /><path fill="rgb(15,28,72)" stroke="rgb(15,28,72)" stroke-width="1" opacity="0.9921568627450981" d="M 202 215 Q 205 213.8 204 217.5 L 203 222.5 L 204 222.5 L 204.5 219 L 206 222.5 L 205 224.5 L 207 223.5 L 207.5 219 L 209 227.5 L 211 230.5 L 209 229.5 L 206.5 225 L 206 232 L 203.5 231 L 201 237.5 L 200.5 264 L 200 236.5 L 202 229.5 L 201 229.5 Q 197.4 234.9 199 245.5 L 196 251.5 Q 199.3 254.7 199 261.5 L 196 265.5 L 195 272.5 L 197 271.5 L 199.5 266 L 202 271.5 L 203 317.5 L 206 331.5 L 207 350.5 L 208 351.5 L 209 436.5 Q 211.5 438 210 443.5 L 209 444.5 L 209 469.5 L 207.5 471 L 203.5 472 L 204.5 470 L 207 469.5 L 207 459 L 198 459 L 198 463.5 L 197 463.5 L 196.5 462 L 191 473.5 L 186.5 478 L 183 479.5 Q 183.6 482.3 177.5 481 L 176.5 480 L 169 480 L 167 474.5 L 167 472.5 L 169 460.5 Q 166.5 459 168 453.5 L 169 452.5 L 169 432.5 L 169 430.5 L 167 406 L 169 405.5 L 169 360.5 L 166 343.5 L 167 342.5 L 167 326.5 Q 164.8 325.3 166 320.5 L 167 318.5 L 166 317.5 Q 167.3 309.3 165 304.5 Q 167.7 302.7 166 296.5 L 165 295.5 L 164.5 276 L 161 285.5 L 161 310.5 L 162 314.5 L 161 317.5 L 162 321.5 L 161 322.5 L 161 341.5 L 164 354.5 L 164 356.5 L 164 377.5 L 162 384.5 L 163 385.5 L 163 397.5 L 162 399.5 L 163 403.5 L 162 404.5 L 160.5 425 L 160 411.5 L 159 410.5 L 160 405.5 L 159 404.5 L 158 363.5 L 155 346 Q 152.3 344.9 153 347.5 L 148.5 351 L 147 349.5 L 146 338.5 L 144 333.5 Q 145.7 327.3 143 325.5 L 143 300.5 L 141.5 299 L 140 299.5 L 141 301.5 L 139 303.5 L 139 337.5 L 143 353.5 L 146.5 359 Q 148.8 358.3 148 360.5 L 149 363.5 L 144 365.5 L 147 366.5 L 146.5 368 Q 150.3 367.3 151 369.5 L 146 370.5 Q 147.3 374 152 373 L 152 375 Q 154.7 373.9 154 376.5 L 152.5 378 L 141.5 379 L 140 380.5 L 145.5 384 L 150 384.5 L 142 385.5 L 147.5 387 L 150 386 Q 149 389 152 388 L 152 390.5 L 152.5 392 L 142 395.5 L 144 396.5 L 143.5 398 L 152.5 396 L 153.5 398 L 145 400.5 L 153 403 Q 154.3 406.7 148.5 405 L 148.5 406 L 155 408.5 L 149 412.5 L 149 414.5 L 148 416.5 L 152.5 417 L 155.5 416 L 154 418.5 L 152.5 421 L 148 424.5 L 145.5 428 L 144 428 L 144 432 L 147.5 433 L 149 432.5 L 150 438 Q 145.9 439.3 147 436 L 143.5 436 L 142.5 438 L 152 442.5 L 151 445 L 143 449 L 141 453 L 147 454.5 L 144 456 L 145.5 459 L 149 460.5 L 148 467 Q 145.3 465.9 146 468.5 L 143.5 470 L 136.5 467 L 133 463.5 L 132 461.5 L 132 448.5 L 134 438 L 140 436.5 Q 138.6 433.4 133.5 434 L 130 436 L 128.5 443 L 126 441.5 L 126 439.5 L 124 432.5 L 124 389.5 L 126 383.5 L 128 364.5 L 133 339.5 L 136 306.5 L 137 305.5 L 138 291.5 L 141 275.5 L 146 256.5 L 154.5 244 L 166.5 236 L 195.5 222 L 202 216.5 L 202 215 Z M 193 226 L 191 228 L 192 230 L 193 228 L 193 226 Z M 191 230 Q 186 235 185 243 L 186 247 L 188 238 L 191 234 L 191 230 Z M 153 248 L 151 251 L 153 251 L 153 248 Z M 176 248 L 173 251 L 172 262 L 171 263 L 172 288 L 174 276 L 174 265 L 176 260 L 176 248 Z M 150 307 L 150 312 L 154 321 L 156 322 L 156 316 L 153 309 L 150 307 Z M 183 336 L 182 339 L 183 339 L 183 336 Z M 201 341 L 200 345 L 201 345 L 201 341 Z M 185 355 Q 182 356 183 360 L 183 362 L 183 372 L 182 373 L 185 387 L 187 388 Q 186 382 190 384 L 189 382 L 187 363 Q 184 360 185 355 Z M 187 388 L 186 393 L 189 404 L 190 402 Q 192 395 189 394 Q 191 387 187 388 Z M 140 396 L 140 397 L 142 397 L 140 396 Z M 140 405 L 140 406 L 147 406 L 140 405 Z M 191 406 L 190 410 L 191 410 L 191 406 Z M 199 421 Q 198 432 192 438 Q 186 436 187 440 L 192 440 L 198 437 Q 197 430 201 427 L 199 426 L 199 421 Z M 198 441 L 195 444 L 197 449 L 194 456 L 196 457 L 194 458 L 197 458 L 198 454 Q 200 455 202 452 L 206 453 L 207 455 L 208 453 L 207 452 L 207 443 L 203 444 L 204 447 Q 205 450 203 451 L 201 450 L 199 451 L 199 442 L 198 441 Z M 191 455 L 189 457 Q 191 462 188 464 L 190 464 L 191 459 L 191 455 Z M 186 474 L 187 476 Q 188 473 186 474 Z " /><path fill="rgb(15,28,72)" stroke="rgb(15,28,72)" stroke-width="1" opacity="0.9921568627450981" d="M 331.5 277 L 332 279 Q 335.3 277.7 334 282.5 L 348 332.5 L 350 355.5 L 360 375.5 L 362 383 L 359 383 Q 360.5 378.5 356 380 L 354.5 383 Q 353 379.5 351.5 382 L 340.5 388 L 330.5 390 L 331.5 388 Q 335.9 389.5 335 386.5 Q 332.8 385.3 335.5 384 L 339.5 385 L 351 381 L 352 378.5 L 348.5 375 L 337 374.5 Q 338.8 372.3 343.5 373 L 348 369.5 Q 347.3 367.3 349.5 368 L 352 367 Q 353.5 363.3 350.5 364 Q 349 367.5 342.5 366 L 342.5 365 L 344 364.5 Q 340.1 362.9 340.5 357 L 339.5 360 L 339 352.5 Q 341.5 351 338 349.5 L 337.5 347 L 337 350 L 333 351.5 Q 335.3 352.8 332.5 354 L 328 351.5 L 330 349.5 Q 328.8 344.8 331 343.5 L 332 320.5 L 335 313.5 L 334 309.5 L 336 310.5 L 336.5 314 L 338 303.5 L 334 296.5 L 333 290 Q 329 291.4 331 284.5 L 330 282.5 L 330 278.5 L 331.5 277 Z M 336 333 L 336 337 L 338 336 Q 339 332 336 333 Z M 338 343 Q 336 346 339 345 L 338 343 Z " /><path fill="rgb(15,28,72)" stroke="rgb(15,28,72)" stroke-width="1" opacity="0.9921568627450981" d="M 318.5 284 Q 321.5 285.5 318.5 287 Q 316.3 287.8 317 285.5 L 318.5 284 Z " /><path fill="rgb(15,28,72)" stroke="rgb(15,28,72)" stroke-width="1" opacity="0.9921568627450981" d="M 262.5 317 L 263 343.5 L 262 343.5 L 261 326.5 L 262 325.5 L 262.5 317 Z " /><path fill="rgb(15,28,72)" stroke="rgb(15,28,72)" stroke-width="1" opacity="0.9921568627450981" d="M 278.5 348 L 279 351 L 277 350.5 L 278.5 348 Z " /><path fill="rgb(15,28,72)" stroke="rgb(15,28,72)" stroke-width="1" opacity="0.9921568627450981" d="M 280.5 350 L 281.5 352 Q 278.7 352.7 280.5 350 Z " /><path fill="rgb(15,28,72)" stroke="rgb(15,28,72)" stroke-width="1" opacity="0.9921568627450981" d="M 337.5 360 L 338 365 L 333.5 364 L 331.5 365 L 328 363.5 L 335.5 363 L 337 361.5 L 337.5 360 Z " /><path fill="rgb(15,28,72)" stroke="rgb(15,28,72)" stroke-width="1" opacity="0.9921568627450981" d="M 339.5 361 L 341 364.5 L 339 363.5 L 339.5 361 Z " /><path fill="rgb(15,28,72)" stroke="rgb(15,28,72)" stroke-width="1" opacity="0.9921568627450981" d="M 340.5 368 L 337.5 372 L 333 373 Q 334.4 376.7 328.5 375 L 328.5 374 L 332 373.5 L 329 373 Q 327.9 369.5 335.5 371 L 340.5 368 Z " /><path fill="rgb(15,28,72)" stroke="rgb(15,28,72)" stroke-width="1" opacity="0.9921568627450981" d="M 334.5 379 L 341 379.5 Q 339.8 382.3 338.5 380 Q 333.5 381 334.5 379 Z " /><path fill="rgb(15,28,72)" stroke="rgb(15,28,72)" stroke-width="1" opacity="0.9921568627450981" d="M 330.5 384 L 333 384.5 L 330.5 385 L 330.5 384 Z " /><path fill="rgb(15,28,72)" stroke="rgb(15,28,72)" stroke-width="1" opacity="0.9921568627450981" d="M 327 387 L 329 387.5 L 327 388.5 L 327 387 Z " /><path fill="rgb(15,28,72)" stroke="rgb(15,28,72)" stroke-width="1" opacity="0.9921568627450981" d="M 361.5 388 Q 365.7 386.7 364 391.5 L 365 394.5 Q 362.7 395.8 364 400.5 Q 366.3 401.8 365 406.5 L 363 405.5 Q 363.8 401.8 361.5 401 L 361 411.5 L 362 412.5 L 362 425 L 359 425.5 L 362 432.5 L 360 433.5 L 358 424 Q 360.7 425.1 360 422.5 L 360 420.5 L 360 406.5 L 358.5 405 L 349 407.5 L 349 409.5 L 345.5 414 L 340.5 416 L 332 410.5 L 333.5 410 L 335.5 411 L 337.5 411 L 343 410 Q 341.2 405.1 347.5 407 L 351 406 L 352 401 Q 346.4 402.9 336.5 402 Q 335.4 399.3 332 400 L 333 393 L 340 392 L 340 394 Q 336.3 392.5 337 395.5 L 338 396.5 L 336 398.5 L 336.5 401 L 341.5 401 Q 342.9 398.4 347.5 399 L 360 390.5 L 361.5 388 Z " /><path fill="rgb(15,28,72)" stroke="rgb(15,28,72)" stroke-width="1" opacity="0.9921568627450981" d="M 344.5 393 L 343.5 395 L 342 394.5 L 344.5 393 Z " /><path fill="rgb(15,28,72)" stroke="rgb(15,28,72)" stroke-width="1" opacity="0.9921568627450981" d="M 332.5 403 L 336 403.5 L 332.5 404 L 332.5 403 Z " /><path fill="rgb(15,28,72)" stroke="rgb(15,28,72)" stroke-width="1" opacity="0.9921568627450981" d="M 283.5 407 L 292 408 Q 290.9 410.7 293.5 410 L 296 411.5 L 293 414.5 L 294 415.5 L 295 419.5 L 290.5 425 Q 287.5 424.5 288 420.5 L 289 418.5 L 287.5 415 Q 285.2 419.2 283 414.5 L 283 412.5 L 284.5 409 L 288 408.5 L 283.5 408 L 283.5 407 Z " /><path fill="rgb(15,28,72)" stroke="rgb(15,28,72)" stroke-width="1" opacity="0.9921568627450981" d="M 274 410 Q 277.8 408.5 277 411.5 L 276 413.5 L 277 416 L 273 413.5 L 274 410 Z " /><path fill="rgb(15,28,72)" stroke="rgb(15,28,72)" stroke-width="1" opacity="0.9921568627450981" d="M 299 416 Q 301.7 414.9 301 417.5 L 299 418.5 L 299 416 Z " /><path fill="rgb(15,28,72)" stroke="rgb(15,28,72)" stroke-width="1" opacity="0.9921568627450981" d="M 347.5 419 Q 352.8 417.3 351 422.5 L 350 425 L 346 424 Q 345 420.2 347.5 419 Z " /><path fill="rgb(15,28,72)" stroke="rgb(15,28,72)" stroke-width="1" opacity="0.9921568627450981" d="M 356.5 419 L 357 425 Q 351.8 427.1 353 422.5 L 352.5 421 L 356.5 419 Z " /><path fill="rgb(15,28,72)" stroke="rgb(15,28,72)" stroke-width="1" opacity="0.9921568627450981" d="M 340.5 421 Q 344.3 419.8 343 423.5 L 336.5 426 L 333.5 429 L 333 426.5 L 338 424.5 L 336 423.5 L 340.5 421 Z " /><path fill="rgb(15,28,72)" stroke="rgb(15,28,72)" stroke-width="1" opacity="0.9921568627450981" d="M 281 424 Q 284 423 283 426 Q 280 427 281 424 Z " /><path fill="rgb(15,28,72)" stroke="rgb(15,28,72)" stroke-width="1" opacity="0.9921568627450981" d="M 285 426 Q 288 424.8 287 428.5 L 285 427.5 L 285 426 Z " /><path fill="rgb(15,28,72)" stroke="rgb(15,28,72)" stroke-width="1" opacity="0.9921568627450981" d="M 317 429 Q 320 428 319 431 Q 316 432 317 429 Z " /><path fill="rgb(15,28,72)" stroke="rgb(15,28,72)" stroke-width="1" opacity="0.9921568627450981" d="M 342.5 430 L 346.5 433 L 347 431.5 L 346.5 430 Q 348.8 429.3 348 431.5 L 352 434 L 350 438 L 354 439.5 L 355 442.5 Q 353 447 351 443.5 L 350.5 441 L 348.5 444 L 347 444.5 Q 351.3 446.8 346.5 449 L 338.5 453 Q 335.5 451.5 338.5 450 L 340 449.5 L 337 447.5 L 338 444 L 342.5 442 Q 344 444.5 345.5 441 Q 351.8 442.9 350 438 L 344 437 Q 345.5 433.2 342.5 434 L 341 431.5 L 342.5 430 Z " /><path fill="rgb(15,28,72)" stroke="rgb(15,28,72)" stroke-width="1" opacity="0.9921568627450981" d="M 341.5 436 L 342 438 L 340 437.5 L 341.5 436 Z " /><path fill="rgb(15,28,72)" stroke="rgb(15,28,72)" stroke-width="1" opacity="0.9921568627450981" d="M 315.5 440 L 313.5 443 L 313 441 L 315.5 440 Z " /><path fill="rgb(15,28,72)" stroke="rgb(15,28,72)" stroke-width="1" opacity="0.9921568627450981" d="M 302.5 441 L 303 442.5 L 298 446.5 Q 298.8 449.1 295.5 448 L 298.5 444 L 302.5 441 Z " /><path fill="rgb(15,28,72)" stroke="rgb(15,28,72)" stroke-width="1" opacity="0.9921568627450981" d="M 319.5 444 Q 322.3 443.4 321 449.5 L 320 449.5 L 318.5 447 L 317 446.5 L 319.5 444 Z " /><path fill="rgb(15,28,72)" stroke="rgb(15,28,72)" stroke-width="1" opacity="0.9921568627450981" d="M 314.5 445 L 312.5 448 L 314.5 445 Z " /><path fill="rgb(15,28,72)" stroke="rgb(15,28,72)" stroke-width="1" opacity="0.9921568627450981" d="M 315 448 Q 318.7 446.6 317 452.5 L 316 452.5 Q 316.8 450.3 314.5 451 L 315 452.5 L 314 456 Q 310.7 454.9 312 459 L 309 459 L 309 464.5 L 307 463.5 L 306.5 462 L 305 470.5 L 306 470.5 Q 305.2 467.9 308.5 469 L 312 464 L 317 460.5 Q 316.3 458.3 318.5 459 L 322 456.5 L 318.5 461 Q 316.3 460.3 317 462.5 L 312 466.5 L 309.5 471 L 305.5 472 L 303.5 471 L 302 471.5 L 301.5 470 L 300.5 473 L 297.5 473 L 295.5 475 L 288.5 477 L 286 476.5 L 286 474.5 L 286 472.5 L 292.5 466 Q 295.8 467.1 295 464.5 L 299 462 L 298 459.5 L 299.5 460 L 309 450.5 Q 308.3 448.3 310.5 449 L 309 451.5 Q 309.8 453.8 307.5 453 L 305 457 Q 302.3 455.9 303 458.5 L 296.5 466 L 301 463.5 L 306.5 457 L 308 457 Q 306.5 453.3 309.5 454 L 315 450 L 315 448 Z M 296 466 L 291 469 L 292 471 L 295 470 L 296 468 L 296 466 Z M 290 471 L 288 473 L 290 474 L 290 471 Z " /><path fill="rgb(15,28,72)" stroke="rgb(15,28,72)" stroke-width="1" opacity="0.9921568627450981" d="M 325.5 461 L 323.5 464 L 325.5 461 Z " /><path fill="rgb(15,28,72)" stroke="rgb(15,28,72)" stroke-width="1" opacity="0.9921568627450981" d="M 318.5 463 L 317.5 465 L 318.5 463 Z " /><path fill="rgb(15,28,72)" stroke="rgb(15,28,72)" stroke-width="1" opacity="0.9921568627450981" d="M 205.5 474 L 206.5 476 L 208 475.5 Q 205.9 481.4 210.5 480 L 211.5 481 L 223.5 481 L 224.5 482 L 246.5 482 L 247.5 481 L 259.5 481 L 260.5 480 L 261 483.5 L 258.5 486 L 253.5 487 L 222.5 488 L 223 486.5 Q 224.5 482.1 221.5 483 L 212 485.5 L 216 487.5 L 212.5 488 L 203.5 484 L 200.5 485 L 197 483.5 L 198 477 L 205.5 474 Z " /><path fill="rgb(15,28,72)" stroke="rgb(15,28,72)" stroke-width="1" opacity="0.9921568627450981" d="M 264.5 474 L 267 474.5 Q 264.9 477.8 264.5 474 Z " /><path fill="rgb(8,11,29)" stroke="rgb(8,11,29)" stroke-width="1" opacity="0.9882352941176471" d="M 231.5 113 L 234.5 114 L 236.5 114 L 245.5 117 L 253 123.5 L 251 123.5 L 252.5 126 L 258.5 130 L 259.5 128 L 260.5 130 L 258 131.5 Q 257.3 133.8 259.5 133 Q 261 136.5 262.5 134 Q 265.3 133.4 264 139.5 Q 266.8 141.3 265 147.5 L 264 148.5 Q 264.9 156.8 263 161 L 261 160.5 L 261 148.5 L 262 148.5 L 262.5 150 L 263 142 L 259.5 144 L 255.5 136 L 238.5 133 L 227 132.5 L 227.5 131 L 226 130.5 L 229 129.5 L 228.5 128 Q 230.8 128.8 230 126.5 L 230 124.5 L 228 120.5 L 229.5 117 L 231.5 118 L 233 115.5 L 230 114.5 L 231.5 113 Z M 236 115 L 234 117 L 236 117 L 236 115 Z M 238 116 L 239 120 L 238 120 L 236 123 L 238 122 Q 241 123 240 120 Q 243 119 242 122 L 249 123 Q 251 124 250 122 Q 249 119 245 120 L 243 118 L 241 119 Q 238 118 240 117 L 238 116 Z M 253 131 Q 252 134 255 133 Q 256 130 253 131 Z " /><path fill="rgb(8,11,29)" stroke="rgb(8,11,29)" stroke-width="1" opacity="0.9882352941176471" d="M 246.5 150 L 252 153.5 L 250.5 153 Q 242.9 154.5 244 151 L 246.5 150 Z " /><path fill="rgb(8,11,29)" stroke="rgb(8,11,29)" stroke-width="1" opacity="0.9882352941176471" d="M 220.5 158 L 219.5 160 L 220.5 158 Z " /><path fill="rgb(8,11,29)" stroke="rgb(8,11,29)" stroke-width="1" opacity="0.9882352941176471" d="M 246 160 Q 249 159 248 162 Q 245 163 246 160 Z " /><path fill="rgb(8,11,29)" stroke="rgb(8,11,29)" stroke-width="1" opacity="0.9882352941176471" d="M 256.5 161 L 259 161.5 L 256.5 162 L 256.5 161 Z " /><path fill="rgb(8,11,29)" stroke="rgb(8,11,29)" stroke-width="1" opacity="0.9882352941176471" d="M 260 162 Q 264.1 160.7 263 164 Q 258.9 165.3 260 162 Z " /><path fill="rgb(8,11,29)" stroke="rgb(8,11,29)" stroke-width="1" opacity="0.9882352941176471" d="M 235 164 Q 238.7 162.7 237 168.5 L 238.5 171 L 236 169.5 L 235 164 Z " /><path fill="rgb(8,11,29)" stroke="rgb(8,11,29)" stroke-width="1" opacity="0.9882352941176471" d="M 266 164 L 268 164.5 L 268 171.5 L 266 172.5 L 266 164 Z " /><path fill="rgb(8,11,29)" stroke="rgb(8,11,29)" stroke-width="1" opacity="0.9882352941176471" d="M 261.5 170 L 265 171.5 L 262.5 177 L 258.5 178 L 258.5 177 L 261 175.5 L 260 171.5 L 261.5 170 Z " /><path fill="rgb(8,11,29)" stroke="rgb(8,11,29)" stroke-width="1" opacity="0.9882352941176471" d="M 240.5 172 L 242 174.5 L 240 175.5 L 240 173.5 L 240.5 172 Z " /><path fill="rgb(8,11,29)" stroke="rgb(8,11,29)" stroke-width="1" opacity="0.9882352941176471" d="M 234.5 174 Q 237.5 173.3 236 177 Q 232.3 178.5 233 175.5 L 234.5 174 Z " /><path fill="rgb(8,11,29)" stroke="rgb(8,11,29)" stroke-width="1" opacity="0.9882352941176471" d="M 235 183 L 243 185.5 L 238.5 186 L 235 185 L 235 183 Z " /><path fill="rgb(8,11,29)" stroke="rgb(8,11,29)" stroke-width="1" opacity="0.9882352941176471" d="M 237.5 202 L 241 202.5 L 238 207 L 234.5 208 L 235 206.5 L 234 203 L 237.5 202 Z " /><path fill="rgb(8,11,29)" stroke="rgb(8,11,29)" stroke-width="1" opacity="0.9882352941176471" d="M 255.5 205 Q 258 206 257 210.5 Q 254.4 213.4 255 219.5 L 253.5 221 L 251.5 220 L 249 221.5 Q 253.9 214.9 255.5 205 Z " /><path fill="rgb(8,11,29)" stroke="rgb(8,11,29)" stroke-width="1" opacity="0.9882352941176471" d="M 206 209 L 208 209.5 L 208 218.5 L 206.5 224 L 204.5 219 L 203.5 223 L 203 218.5 L 204 215.5 L 204 213.5 L 206 209 Z " /><path fill="rgb(8,11,29)" stroke="rgb(8,11,29)" stroke-width="1" opacity="0.9882352941176471" d="M 263.5 215 L 269 217.5 L 266 218.5 L 271 227.5 L 269 228 Q 270 225 267 226 L 266 234 L 263.5 235 L 262.5 230 Q 260.3 233.8 261 240.5 L 257 251.5 L 257 262.5 L 256 263.5 L 257 265.5 L 256 269.5 L 257 271.5 L 256 272.5 L 255.5 284 L 255 266.5 L 254 264.5 L 254 262.5 L 255 257.5 L 255 255.5 L 255 249 L 252.5 249 L 248.5 249 L 246 248.5 L 246 240.5 L 246 238.5 L 247 232.5 L 248.5 231 L 248 232.5 L 256.5 249 L 257 240.5 L 262 229.5 L 264 218.5 L 263.5 215 Z " /><path fill="rgb(8,11,29)" stroke="rgb(8,11,29)" stroke-width="1" opacity="0.9882352941176471" d="M 274.5 219 L 278 219.5 L 274.5 220 L 274.5 219 Z " /><path fill="rgb(8,11,29)" stroke="rgb(8,11,29)" stroke-width="1" opacity="0.9882352941176471" d="M 192.5 226 L 193 227.5 L 188 237.5 L 185.5 247 L 185 242.5 Q 187 232.5 192.5 226 Z " /><path fill="rgb(8,11,29)" stroke="rgb(8,11,29)" stroke-width="1" opacity="0.9882352941176471" d="M 250.5 227 L 250 228.5 L 249.5 230 L 249 228.5 L 250.5 227 Z " /><path fill="rgb(8,11,29)" stroke="rgb(8,11,29)" stroke-width="1" opacity="0.9882352941176471" d="M 201.5 229 L 202 232.5 L 200 236.5 L 200 263.5 L 201 268.5 L 200 268.5 L 199.5 266 L 195.5 273 L 195 271.5 L 199 258.5 L 196 250.5 L 199 245.5 Q 197.3 234.3 201.5 229 Z " /><path fill="rgb(8,11,29)" stroke="rgb(8,11,29)" stroke-width="1" opacity="0.9882352941176471" d="M 289.5 232 L 290 234.5 L 289 234.5 L 289.5 232 Z " /><path fill="rgb(8,11,29)" stroke="rgb(8,11,29)" stroke-width="1" opacity="0.9882352941176471" d="M 262.5 240 Q 264.8 240.8 264 244.5 L 263 244.5 L 262.5 240 Z " /><path fill="rgb(8,11,29)" stroke="rgb(8,11,29)" stroke-width="1" opacity="0.9882352941176471" d="M 285 240 Q 289 238.6 287 245.5 Q 283 247.5 287 249.5 L 282 263.5 Q 284.3 264.8 281.5 266 L 280 258.5 L 282 255.5 L 282 253.5 L 282 249.5 L 285 240 Z " /><path fill="rgb(8,11,29)" stroke="rgb(8,11,29)" stroke-width="1" opacity="0.9882352941176471" d="M 309 242 Q 312 240.8 311 244.5 Q 308.8 245.7 310 250.5 L 313.5 255 L 317 252.5 L 316 256.5 Q 318.5 258 315 259.5 L 312 264.5 L 314.5 268 Q 311.2 269.1 312 266.5 L 310 267.5 L 309 276.5 L 310 276.5 L 311.5 269 L 312 271 L 316 270 Q 314.9 267.3 317.5 268 L 320 269 L 319 271.5 L 320.5 276 L 321.5 274 L 322 279.5 L 322 281.5 L 322 287.5 Q 319.3 289.8 320 295.5 L 321 295.5 L 323 290.5 L 323 252.5 L 322 250.5 L 324 251.5 L 333 278.5 L 332 278.5 L 331.5 277 L 330 278.5 L 330 282.5 L 331 290 Q 333.7 288.9 333 291.5 L 334 296.5 L 338 303.5 L 338 307.5 L 336.5 314 L 334.5 309 L 334 312.5 L 335 315.5 L 332 320.5 L 331 343.5 Q 328.8 344.8 330 349.5 L 328 351.5 L 332.5 354 L 334.5 350 Q 338.3 351.3 337 347.5 L 338 347.5 L 340 351.5 Q 337.3 353.3 339 359.5 L 340 359.5 L 340.5 357 Q 340.1 363 344 364.5 L 342 365.5 L 348.5 366 L 352 364 Q 353.5 367.7 350.5 367 L 348 368 L 346.5 371 L 337 374.5 L 348.5 375 L 352 378.5 L 351 381 L 338.5 385 L 335.5 384 Q 332.8 385.3 335 386.5 Q 335.9 389.5 331.5 388 L 330.5 390 L 340.5 388 L 352.5 381 Q 354.3 384.8 356 381.5 Q 355.2 378.5 359 380 Q 357.5 384.5 362 383 L 361 379.5 L 362 379.5 L 364 383.5 L 365 391.5 L 364 391.5 Q 365.7 386.7 361.5 388 L 357.5 393 L 347.5 399 L 336 401.5 L 347.5 402 L 352 401 L 351 406 L 343 407 Q 344.7 411.1 340.5 410 L 337.5 411 L 335.5 411 L 334 411.5 Q 336.7 415.3 342.5 416 L 349 410.5 L 350 408.5 L 349.5 407 L 358.5 405 L 360 406.5 L 360 420.5 L 361 421.5 L 360 424 Q 356.7 422.7 358 427.5 L 361 436.5 Q 359.4 443.4 353.5 446 L 342.5 454 L 332.5 459 L 328.5 463 L 311.5 470 L 311 468.5 L 312 466.5 L 308.5 469 Q 305.2 467.9 306 470.5 L 305 473 L 281 480 L 283 476.5 L 282 474.5 L 283 471.5 L 286 465 L 294.5 458 Q 295.7 460.3 297 457.5 L 296 455 L 301 451.5 L 302.5 449 L 311 441.5 L 309 440.5 L 310.5 440 L 312 440.5 L 314.5 437 Q 316.8 437.8 316 435.5 L 317 433 Q 308.8 432.6 306 438.5 L 307 441.5 L 304 443.5 L 302.5 447 L 293 452.5 L 294.5 453 L 296 452.5 L 291.5 459 L 289 458.5 L 293 457 L 292 452.5 L 293 450 Q 290.3 448.9 291 451.5 L 288 455.5 L 288.5 457 L 285 456 L 283.5 459 Q 278 465.5 269 468.5 L 270.5 474 L 272 473.5 L 273 478 Q 275.7 476.9 275 479.5 L 276 482 L 260.5 485 L 261 483.5 L 262 473 L 267 472 L 270 465.5 L 270 461.5 Q 267.3 459.8 269 453.5 L 271.5 450 L 272 451.5 L 271.5 453 L 274.5 452 L 279 453 Q 280.3 449.7 275.5 451 L 274.5 449 Q 278.9 450.5 278 447.5 L 279 441 L 283 440 L 285.5 435 L 289 432.5 L 286 432 L 285.5 430 L 285 432 L 280.5 431 L 277 440 Q 274 438.8 275 442.5 Q 278 443.8 277 448 Q 271.6 449.5 270 446.5 L 269 430.5 L 272 424.5 L 270 421.5 L 270 416.5 L 268 414.5 Q 269.2 407.8 266 405.5 L 267 403.5 Q 264.5 402 266 396.5 L 268 396.5 L 268 385.5 L 266 375.5 L 264 373.5 L 262 348.5 L 260 343.5 L 259 323.5 L 262 311.5 L 262 303.5 L 261 302.5 L 260 284.5 L 261 283.5 L 261 268.5 L 263.5 256 L 264 262.5 L 263 265.5 L 263 276.5 L 264 277.5 L 263 282.5 L 264 283.5 L 264 296 Q 267 294.8 266 298.5 L 267 301 L 271 300.5 L 270.5 299 L 274 298 Q 273 295 276 296 Q 277.6 298.1 277 303.5 L 273 320.5 L 274 324.5 L 273 325.5 L 273 333.5 L 274 335.5 Q 271.5 337 273 342.5 L 274.5 346 Q 277.3 344.8 275 343.5 Q 274.3 340.9 277 342 L 278.5 347 L 280.5 344 Q 277.5 344.9 279 340.5 Q 281.8 339.8 281 335.5 L 280 332.5 L 282 329.5 L 282 327.5 Q 283.3 322.8 281 321.5 L 285 309.5 L 285 299.5 Q 289 298.1 288 293 L 290.5 294 L 291 289 L 294 288.5 L 294 286.5 Q 294.8 283.9 291.5 285 L 290 285.5 L 291.5 282 L 294 283 Q 295.3 280 291.5 281 L 291 278.5 L 293 259.5 L 295.5 250 L 297 252.5 L 297 268.5 L 298 273.5 L 296 278.5 L 297.5 281 L 300 277.5 L 300 268.5 L 303.5 259 L 306 260 L 309 242 Z M 319 284 L 317 286 Q 316 288 319 287 Q 322 286 319 284 Z M 318 288 L 318 289 L 320 289 L 318 288 Z M 263 317 L 262 326 L 261 327 L 262 344 L 263 344 L 263 317 Z M 279 348 L 277 351 L 279 351 L 279 348 Z M 281 350 Q 279 353 282 352 L 281 350 Z M 338 360 L 337 362 L 336 363 L 328 364 L 332 365 L 334 364 L 338 365 L 338 360 Z M 340 361 L 339 364 L 340 364 L 340 361 Z M 339 369 L 336 371 Q 328 370 329 373 L 332 374 L 329 374 L 329 375 Q 334 377 333 373 Q 338 373 340 370 L 339 369 Z M 335 379 Q 334 381 339 380 Q 340 382 341 380 L 335 379 Z M 331 384 L 331 385 L 333 385 L 331 384 Z M 327 387 L 327 389 L 329 388 L 327 387 Z M 337 392 L 333 393 L 332 400 L 336 401 L 338 397 L 337 396 Q 336 393 340 394 Q 341 391 337 392 Z M 333 403 L 333 404 L 336 404 L 333 403 Z M 284 407 L 284 408 L 288 408 L 284 407 Z M 289 408 L 285 409 L 283 413 L 283 415 L 285 416 L 288 415 L 289 419 L 288 421 Q 287 425 291 425 L 295 420 L 294 416 L 293 415 L 296 412 L 294 410 Q 291 411 292 408 L 289 408 Z M 274 410 L 273 414 L 277 416 L 276 414 L 277 412 Q 278 408 274 410 Z M 324 410 L 326 421 L 328 422 Q 329 415 326 412 Q 327 409 324 410 Z M 299 416 L 299 419 L 301 418 Q 302 415 299 416 Z M 348 419 Q 345 420 346 424 L 350 425 L 351 423 Q 353 417 348 419 Z M 357 419 L 353 421 L 353 423 Q 352 427 357 425 L 357 419 Z M 341 421 L 336 424 L 338 425 L 333 427 L 334 429 L 337 426 L 343 424 Q 344 420 341 421 Z M 281 424 Q 280 427 283 426 Q 284 423 281 424 Z M 285 426 L 285 428 L 287 429 Q 288 425 285 426 Z M 317 429 Q 316 432 319 431 Q 320 428 317 429 Z M 347 430 L 347 432 L 346 434 L 345 431 L 343 432 L 341 432 L 343 434 Q 346 433 344 437 L 348 438 L 350 438 L 352 434 L 348 432 Q 349 429 347 430 Z M 342 436 L 340 438 L 342 438 L 342 436 Z M 350 438 L 351 444 Q 353 447 355 443 L 354 440 L 350 438 Z M 303 441 L 299 444 L 296 448 Q 299 449 298 447 L 303 443 L 303 441 Z M 313 441 L 313 443 L 315 442 L 313 441 Z M 346 441 Q 344 444 343 442 L 338 444 L 337 448 L 340 450 L 339 450 Q 336 452 339 453 L 347 449 Q 351 447 347 445 L 350 443 Q 351 439 346 441 Z M 310 444 L 306 449 L 311 445 L 310 444 Z M 320 444 L 317 447 L 319 447 L 320 450 L 321 450 Q 322 443 320 444 Z M 315 448 L 315 450 L 310 454 Q 307 453 308 457 L 307 457 L 301 464 L 296 466 L 295 469 Q 296 471 293 470 L 291 471 Q 290 468 293 469 L 295 466 L 293 466 L 286 473 Q 286 477 289 477 L 296 475 L 298 473 L 301 473 L 302 470 L 303 472 L 305 471 L 307 462 L 307 464 L 309 465 L 309 459 L 312 459 Q 311 455 314 456 L 315 453 L 315 451 Q 317 450 316 453 L 317 453 Q 319 447 315 448 Z M 305 449 L 299 456 L 306 450 L 305 449 Z M 309 449 L 309 451 L 311 450 L 309 449 Z M 309 451 L 307 453 L 309 453 L 309 451 Z M 305 455 L 303 457 L 305 457 L 305 455 Z M 303 457 L 299 462 L 303 459 L 303 457 Z M 321 457 L 319 459 Q 316 458 317 461 L 321 459 L 321 457 Z M 294 460 L 290 465 L 294 462 L 294 460 Z M 317 461 L 312 464 L 313 466 L 317 463 L 317 461 Z M 298 462 L 295 466 L 299 463 L 298 462 Z M 265 474 Q 265 478 267 475 L 265 474 Z M 270 474 L 267 481 L 268 482 L 270 478 L 270 474 Z M 265 477 L 262 483 L 266 482 L 267 480 L 266 479 L 266 478 L 265 477 Z " /><path fill="rgb(8,11,29)" stroke="rgb(8,11,29)" stroke-width="1" opacity="0.9882352941176471" d="M 318.5 244 L 320 247.5 L 318 246.5 L 318.5 244 Z " /><path fill="rgb(8,11,29)" stroke="rgb(8,11,29)" stroke-width="1" opacity="0.9882352941176471" d="M 175.5 248 L 176 259.5 L 174 264.5 L 174 275.5 L 171.5 288 L 171 262.5 L 172 261.5 L 173 250.5 L 175.5 248 Z " /><path fill="rgb(8,11,29)" stroke="rgb(8,11,29)" stroke-width="1" opacity="0.9882352941176471" d="M 321.5 266 L 322 271.5 L 321 271.5 L 321.5 266 Z " /><path fill="rgb(8,11,29)" stroke="rgb(8,11,29)" stroke-width="1" opacity="0.9882352941176471" d="M 284 269 Q 287 267.8 286 271.5 Q 282.2 276.2 284 286.5 L 282.5 288 L 279 286.5 L 281 276.5 L 284 269 Z " /><path fill="rgb(8,11,29)" stroke="rgb(8,11,29)" stroke-width="1" opacity="0.9882352941176471" d="M 164.5 276 L 166 303.5 L 165 306.5 L 166 307.5 Q 164.3 315.7 167 319.5 Q 164.8 320.8 166 325.5 L 167 326.5 L 167 342.5 L 166 345.5 L 169 360.5 L 169 406 L 167 406.5 L 167 415.5 L 168 416.5 L 169 430.5 L 169 432.5 L 169 452.5 Q 166.5 454 168 459.5 L 169 461.5 L 167 472.5 L 167 474.5 L 169 478.5 L 167.5 479 L 161 473.5 L 159.5 456 L 158 472.5 L 156.5 474 L 152.5 474 L 145 469.5 L 146 467 Q 149.3 468.3 148 463.5 L 149 460.5 L 144 457.5 Q 143.3 455.3 145.5 456 L 146.5 454 L 141 453 L 141 451 L 143 451 Q 141.9 448.3 144.5 449 L 151 445 L 152 442.5 L 142 437.5 Q 143.2 435 147 436 Q 145.9 439.3 150 438 L 148.5 432 L 146.5 433 L 144 432 L 144 428 L 145.5 428 L 151.5 421 L 154 419.5 L 156 416.5 L 153.5 416 L 148.5 417 L 149 415.5 L 150 413.5 Q 147.7 412.3 150.5 411 L 155 408.5 L 148 405.5 L 153 405 Q 154.1 402.3 151.5 403 L 145 400.5 L 154 397.5 L 151.5 396 L 143.5 398 L 143.5 396 L 139.5 397 L 139.5 396 L 153 391.5 L 152 388 L 150 388 Q 151.1 385.3 148.5 386 L 144.5 387 L 142 385.5 L 150 384.5 L 144.5 383 L 143 383.5 L 143.5 382 L 140 380.5 L 141.5 379 L 152.5 378 L 154 376.5 Q 154.7 373.9 152 375 L 152 373 L 148.5 373 L 146.5 370 L 151 369.5 L 146 367.5 L 146.5 366 L 144 365.5 L 149 363.5 L 148 359 L 145 357.5 L 141 347.5 L 139 337.5 L 139 303.5 L 141 300.5 L 140.5 299 L 143 300.5 L 143 325.5 L 144 326.5 L 144 333.5 L 146 338.5 L 147 349.5 L 148.5 351 L 153 347.5 Q 152.3 344.9 155 346 L 158 363.5 L 158 381.5 L 159 382.5 L 159 404.5 L 160 409.5 L 160 411.5 L 160.5 425 L 163 400.5 L 162 398.5 L 163 397.5 L 163 385.5 L 162 382.5 L 164 377.5 L 164 356.5 L 163 353.5 L 163 348.5 L 161 341.5 L 161 322.5 L 162 318.5 L 161 315.5 L 162 311.5 L 161 310.5 L 161 285.5 L 164.5 276 Z " /><path fill="rgb(8,11,29)" stroke="rgb(8,11,29)" stroke-width="1" opacity="0.9882352941176471" d="M 259.5 306 L 261 309.5 L 260 309.5 L 259.5 306 Z " /><path fill="rgb(8,11,29)" stroke="rgb(8,11,29)" stroke-width="1" opacity="0.9882352941176471" d="M 150 307 L 153 308.5 L 156 315.5 L 156 321.5 L 154 320.5 L 150 311.5 L 150 307 Z " /><path fill="rgb(8,11,29)" stroke="rgb(8,11,29)" stroke-width="1" opacity="0.9882352941176471" d="M 336 333 Q 339 331.8 338 335.5 L 336 336.5 L 336 333 Z " /><path fill="rgb(8,11,29)" stroke="rgb(8,11,29)" stroke-width="1" opacity="0.9882352941176471" d="M 183.5 334 L 184 335.5 L 182.5 339 L 182 336.5 L 183.5 334 Z " /><path fill="rgb(8,11,29)" stroke="rgb(8,11,29)" stroke-width="1" opacity="0.9882352941176471" d="M 337.5 343 L 338.5 345 Q 335.7 345.7 337.5 343 Z " /><path fill="rgb(8,11,29)" stroke="rgb(8,11,29)" stroke-width="1" opacity="0.9882352941176471" d="M 184.5 355 Q 184.3 360.3 187 362.5 L 189 381.5 L 190 384 Q 185.1 382.4 187 388 Q 191 386.6 189 393.5 Q 191.8 395.3 190 401.5 L 189 403.5 Q 191.6 404.9 191 409.5 L 190 409.5 L 190 406.5 L 187 400.5 Q 188.8 394.3 186 392.5 L 187 388.5 L 184 383.5 L 184 378.5 L 182 372.5 L 183 371.5 L 183 361.5 L 183 359.5 Q 182.3 355.8 184.5 355 Z " /><path fill="rgb(8,11,29)" stroke="rgb(8,11,29)" stroke-width="1" opacity="0.9882352941176471" d="M 357.5 370 L 359 372.5 L 357 371.5 L 357.5 370 Z " /><path fill="rgb(8,11,29)" stroke="rgb(8,11,29)" stroke-width="1" opacity="0.9882352941176471" d="M 264.5 379 L 265 383.5 L 264 383.5 L 264.5 379 Z " /><path fill="rgb(8,11,29)" stroke="rgb(8,11,29)" stroke-width="1" opacity="0.9882352941176471" d="M 364.5 395 L 365 400.5 L 364 400.5 L 364.5 395 Z " /><path fill="rgb(8,11,29)" stroke="rgb(8,11,29)" stroke-width="1" opacity="0.9882352941176471" d="M 361.5 401 L 365 407.5 L 365 414.5 L 361.5 432 L 359 425.5 L 362 425 L 361.5 401 Z " /><path fill="rgb(8,11,29)" stroke="rgb(8,11,29)" stroke-width="1" opacity="0.9882352941176471" d="M 139.5 405 L 147 405.5 L 139.5 406 L 139.5 405 Z " /><path fill="rgb(8,11,29)" stroke="rgb(8,11,29)" stroke-width="1" opacity="0.9882352941176471" d="M 198.5 421 L 199 426 L 201 426.5 Q 197.2 430.1 198 437 L 191.5 440 L 187 440 Q 185.7 436.3 191.5 438 Q 197.9 432.4 198.5 421 Z " /><path fill="rgb(8,11,29)" stroke="rgb(8,11,29)" stroke-width="1" opacity="0.9882352941176471" d="M 261.5 421 L 263 427.5 Q 259.5 429 262 430.5 L 260.5 437 L 260 428.5 L 259 427.5 L 261.5 421 Z " /><path fill="rgb(8,11,29)" stroke="rgb(8,11,29)" stroke-width="1" opacity="0.9882352941176471" d="M 133.5 434 Q 138.6 433.4 140 436.5 L 134 438 L 131.5 455 L 127 442.5 L 129 442.5 L 130 436 L 133.5 434 Z " /><path fill="rgb(8,11,29)" stroke="rgb(8,11,29)" stroke-width="1" opacity="0.9882352941176471" d="M 197.5 441 L 199 441.5 L 199 450.5 L 200.5 450 L 202.5 451 Q 204.8 450.3 204 446.5 L 203 444 L 206.5 443 L 207 451.5 L 208 452.5 L 206.5 455 L 206 453 L 201.5 452 Q 199.8 455.1 198 453.5 L 199 456.5 L 197 456.5 L 198 458.5 L 196 459.5 L 196.5 458 L 194 457.5 L 196 456.5 L 194 455.5 L 197 448.5 L 195 443.5 L 197.5 441 Z " /><path fill="rgb(8,11,29)" stroke="rgb(8,11,29)" stroke-width="1" opacity="0.9882352941176471" d="M 190.5 455 L 191 458.5 L 190 464 L 188 463.5 Q 190.5 462 189 456.5 L 190.5 455 Z " /><path fill="rgb(8,11,29)" stroke="rgb(8,11,29)" stroke-width="1" opacity="0.9882352941176471" d="M 261.5 455 L 262 459.5 L 261 459.5 L 261.5 455 Z " /><path fill="rgb(8,11,29)" stroke="rgb(8,11,29)" stroke-width="1" opacity="0.9882352941176471" d="M 196.5 462 Q 199.5 465.1 198 472 L 200.5 473 L 207.5 471 L 207 472.5 L 208 474.5 L 206 475.5 L 205.5 474 L 198 477 L 197 483.5 L 200 484.5 L 195.5 485 L 190.5 483 L 179 481.5 L 183 481 L 184.5 478 L 186.5 478 L 191 473.5 L 196.5 462 Z " /><path fill="rgb(8,11,29)" stroke="rgb(8,11,29)" stroke-width="1" opacity="0.9882352941176471" d="M 272.5 469 L 271.5 471 L 272.5 469 Z " /><path fill="rgb(8,11,29)" stroke="rgb(8,11,29)" stroke-width="1" opacity="0.9882352941176471" d="M 275.5 470 L 273.5 473 L 275.5 470 Z " /><path fill="rgb(8,11,29)" stroke="rgb(8,11,29)" stroke-width="1" opacity="0.9882352941176471" d="M 289.5 471 L 290 473.5 L 288 472.5 L 289.5 471 Z " /><path fill="rgb(8,11,29)" stroke="rgb(8,11,29)" stroke-width="1" opacity="0.9882352941176471" d="M 185.5 474 Q 187.8 473.3 187 475.5 L 185.5 474 Z " /><path fill="rgb(8,11,29)" stroke="rgb(8,11,29)" stroke-width="1" opacity="0.9882352941176471" d="M 174.5 480 L 177 480.5 L 174.5 481 L 174.5 480 Z " /><path fill="rgb(8,11,29)" stroke="rgb(8,11,29)" stroke-width="1" opacity="0.9882352941176471" d="M 207.5 480 Q 210.5 481.5 207.5 483 L 207.5 480 Z " /><path fill="rgb(8,11,29)" stroke="rgb(8,11,29)" stroke-width="1" opacity="0.9882352941176471" d="M 203.5 484 L 210 486.5 L 207.5 487 L 201 485.5 L 203.5 484 Z " /></svg>